<svg xmlns="http://www.w3.org/2000/svg" width="31" height="30" fill="none" viewBox="0 0 31 30">
  <path fill="#1D925D" stroke="#1D925D" stroke-linecap="round" stroke-linejoin="round" stroke-miterlimit="10" stroke-width="1.5" d="M28 23.75v3.75H3v-3.75c0-.688.563-1.25 1.25-1.25h22.5c.688 0 1.25.563 1.25 1.25Z"/>
  <path fill="#1D925D" d="M9.25 13.75h-2.5v8.75h2.5v-8.75Zm5 0h-2.5v8.75h2.5v-8.75Zm5 0h-2.5v8.75h2.5v-8.75Zm5 0h-2.5v8.75h2.5v-8.75Zm5 14.688H1.75a.944.944 0 0 1-.938-.938c0-.512.425-.938.938-.938h27.5c.512 0 .938.425.938.938a.944.944 0 0 1-.938.938ZM27.212 7.187l-11.25-4.5c-.25-.1-.675-.1-.925 0l-11.25 4.5C3.35 7.362 3 7.875 3 8.35v4.15c0 .687.563 1.25 1.25 1.25h22.5c.688 0 1.25-.563 1.25-1.25V8.35c0-.475-.35-.988-.788-1.163ZM15.5 10.625a1.872 1.872 0 0 1-1.875-1.875c0-1.038.838-1.875 1.875-1.875 1.038 0 1.875.837 1.875 1.875a1.872 1.872 0 0 1-1.875 1.875Z"/>
</svg>
