<svg xmlns="http://www.w3.org/2000/svg" width="16" height="16" fill="none" viewBox="0 0 16 16">
  <path stroke="#1D925D" stroke-linecap="round" stroke-linejoin="round" stroke-width="1.5" d="M1.527 5.186v6.487c0 1.267.9 1.787 1.993 1.16l1.567-.893c.34-.194.906-.214 1.26-.034l3.5 1.754c.353.173.92.16 1.26-.034l2.886-1.653c.367-.213.674-.733.674-1.16V4.326c0-1.266-.9-1.786-1.994-1.16l-1.566.894c-.34.193-.907.213-1.26.033l-3.5-1.747c-.354-.173-.92-.16-1.26.034L2.2 4.033c-.373.213-.673.733-.673 1.153Zm4.18-2.52v8.667m4.78-6.92v8.92"/>
</svg>
