<svg xmlns="http://www.w3.org/2000/svg" width="31" height="30" fill="none" viewBox="0 0 31 30">
  <path fill="#1D925D" d="M26.712 1.25h-3.674c-1.088 0-1.888.45-2.25 1.25-.2.362-.288.788-.288 1.288v3.675c0 1.587.95 2.537 2.538 2.537h3.674c.5 0 .925-.088 1.288-.287.8-.363 1.25-1.163 1.25-2.25V3.788c0-1.588-.95-2.538-2.538-2.538Zm1.175 4.912a.808.808 0 0 1-.512.226h-1.762v.637l.012 1.1a.79.79 0 0 1-.238.537.738.738 0 0 1-.512.213.752.752 0 0 1-.75-.75v-1.75l-1.75.013a.763.763 0 0 1-.75-.763c0-.412.337-.75.75-.75l1.1.013h.65v-1.75c0-.413.337-.763.75-.763s.75.35.75.763l-.012.887v.85h1.762c.413 0 .75.338.75.75a.85.85 0 0 1-.238.537ZM11.75 12.975a2.975 2.975 0 1 0 0-5.95 2.975 2.975 0 0 0 0 5.95Z"/>
  <path fill="#1D925D" d="M26.712 10h-.587v5.762l-.163-.137c-.974-.838-2.55-.838-3.524 0l-5.2 4.462c-.976.838-2.55.838-3.525 0l-.425-.35c-.888-.774-2.3-.85-3.3-.174L5.313 22.7c-.276-.7-.438-1.512-.438-2.462V9.761c0-3.525 1.862-5.387 5.387-5.387H20.5v-.587c0-.5.087-.925.288-1.288H10.262C5.712 2.5 3 5.213 3 9.762v10.476c0 1.362.237 2.55.7 3.55 1.075 2.375 3.375 3.712 6.562 3.712h10.476c4.55 0 7.262-2.712 7.262-7.262V9.713c-.363.2-.788.287-1.288.287Z"/>
</svg>
